<svg width="18" height="17" viewBox="0 0 25 24" fill="none" xmlns="http://www.w3.org/2000/svg">
<rect x="0.3125" width="24" height="24" rx="12" fill="#FF3C5F"/>
<path fill-rule="evenodd" clip-rule="evenodd" d="M8.05214 7.73967C8.37166 7.42015 8.8897 7.42015 9.20922 7.73967L12.3125 10.8429L15.4158 7.73967C15.7353 7.42015 16.2533 7.42015 16.5729 7.73967C16.8924 8.05919 16.8924 8.57723 16.5729 8.89675L13.4696 12L16.5729 15.1033C16.8924 15.4228 16.8924 15.9409 16.5729 16.2604C16.2533 16.5799 15.7353 16.5799 15.4158 16.2604L12.3125 13.1571L9.20922 16.2604C8.8897 16.5799 8.37166 16.5799 8.05214 16.2604C7.73262 15.9409 7.73262 15.4228 8.05214 15.1033L11.1554 12L8.05214 8.89675C7.73262 8.57723 7.73262 8.05919 8.05214 7.73967Z" fill="white"/>
</svg>
