<svg width="18" height="17" viewBox="0 0 25 24" fill="none" xmlns="http://www.w3.org/2000/svg">
<rect x="0.3125" width="24" height="24" rx="12" fill="#00BB8E"/>
<path fill-rule="evenodd" clip-rule="evenodd" d="M18.231 7.97923C18.627 8.39115 18.614 9.04605 18.2021 9.442L11.0276 16.3383L6.42296 11.9122C6.01104 11.5163 5.99809 10.8614 6.39404 10.4495C6.78998 10.0376 7.44488 10.0246 7.8568 10.4205L11.0276 13.4684L16.7683 7.95031C17.1802 7.55437 17.8351 7.56732 18.231 7.97923Z" fill="#00BB8E"/>
<path fill-rule="evenodd" clip-rule="evenodd" d="M17.7951 8.29284C18.1619 8.67264 18.1499 9.27646 17.7683 9.64153L11.1222 16L6.85672 11.9191C6.47514 11.554 6.46315 10.9502 6.82993 10.5704C7.19671 10.1906 7.80337 10.1787 8.18495 10.5438L11.1222 13.3539L16.4401 8.26618C16.8216 7.90111 17.4283 7.91305 17.7951 8.29284Z" fill="white"/>
</svg>
