<svg enable-background="new 0 0 24 24" viewBox="0 0 24 24" xmlns="http://www.w3.org/2000/svg">
<path d="m21.849 20.151-4.607-4.607c1.085-1.438 1.736-3.22 1.736-5.156 0-4.736-3.854-8.589-8.589-8.589-4.736.001-8.589 3.854-8.589 8.59 0 4.735 3.853 8.589 8.589 8.589 1.935 0 3.718-.651 5.156-1.736l4.607 4.607c.234.234.541.351.848.351s.614-.117.849-.352c.468-.468.468-1.228 0-1.697zm-17.649-9.762c0-3.413 2.776-6.189 6.189-6.189 3.412 0 6.188 2.776 6.188 6.188s-2.776 6.188-6.188 6.188c-3.413.001-6.189-2.775-6.189-6.187z" fill="#a5afb9"></path>
</svg>